<svg width="39" height="39" viewBox="0 0 39 39" fill="none" xmlns="http://www.w3.org/2000/svg">
<g clip-path="url(#clip0_4340_3959)">
<path d="M28.5461 15.5558L31.6981 10.0956C31.7826 9.94899 31.8057 9.77493 31.7623 9.6114C31.7189 9.44788 31.6126 9.30815 31.4666 9.22275C31.3944 9.1804 31.3146 9.15279 31.2317 9.14151C31.1488 9.13024 31.0645 9.13552 30.9837 9.15706C30.9028 9.1786 30.8271 9.21596 30.7608 9.26698C30.6945 9.31801 30.639 9.38168 30.5975 9.45431L27.4061 14.9851C24.9695 13.8718 22.2271 13.2521 19.2776 13.2521C16.3282 13.2521 13.5858 13.8725 11.1492 14.9851L7.95777 9.45431C7.87274 9.30786 7.73301 9.20119 7.56933 9.15776C7.40564 9.11434 7.23141 9.13771 7.08496 9.22275C6.93851 9.30778 6.83184 9.44751 6.78841 9.61119C6.74499 9.77488 6.76836 9.94911 6.8534 10.0956L9.99805 15.5558C4.56523 18.4979 0.883242 23.9997 0.275391 30.4404H38.2754C37.6675 23.9997 33.9855 18.4979 28.5461 15.5558V15.5558ZM10.551 25.1041C10.236 25.1041 9.92802 25.0106 9.6661 24.8356C9.40418 24.6606 9.20003 24.4119 9.07948 24.1208C8.95893 23.8298 8.92739 23.5096 8.98885 23.2006C9.0503 22.8916 9.202 22.6078 9.42474 22.3851C9.64749 22.1623 9.93129 22.0107 10.2402 21.9492C10.5492 21.8877 10.8695 21.9193 11.1605 22.0398C11.4515 22.1604 11.7003 22.3645 11.8753 22.6265C12.0503 22.8884 12.1437 23.1963 12.1437 23.5113C12.1435 23.9337 11.9756 24.3387 11.677 24.6373C11.3783 24.936 10.9733 25.1039 10.551 25.1041ZM27.9924 25.1041C27.6777 25.1027 27.3704 25.0082 27.1093 24.8324C26.8483 24.6566 26.6452 24.4074 26.5257 24.1162C26.4061 23.8251 26.3755 23.505 26.4378 23.1965C26.5 22.888 26.6522 22.6048 26.8752 22.3828C27.0982 22.1607 27.382 22.0096 27.6908 21.9487C27.9996 21.8878 28.3195 21.9197 28.6101 22.0405C28.9008 22.1612 29.1491 22.3654 29.3238 22.6271C29.4985 22.8889 29.5918 23.1966 29.5918 23.5113C29.5917 23.7208 29.5503 23.9281 29.47 24.1216C29.3897 24.315 29.272 24.4907 29.1238 24.6387C28.9755 24.7866 28.7995 24.9038 28.6059 24.9837C28.4123 25.0635 28.2048 25.1044 27.9954 25.1041H27.9924Z" fill="white"/>
</g>
<defs>
<clipPath id="clip0_4340_3959">
<rect width="38" height="38" fill="white" transform="translate(0.275391 0.786133)"/>
</clipPath>
</defs>
</svg>
