<svg width="32" height="32" viewBox="0 0 32 32" fill="none" xmlns="http://www.w3.org/2000/svg">
<g clip-path="url(#clip0_3556_1254)">
<path d="M24.7691 17.9367C23.8889 13.5066 28.0937 10.9085 28.0937 10.9085C28.0937 10.9085 26.4555 8.53828 23.7022 7.92853C20.9502 7.31744 19.5729 8.08093 18.1982 8.65357C16.8222 9.22761 16.1356 9.22761 16.1356 9.22761C14.15 9.22761 12.6984 7.12518 8.91519 8.08233C6.30882 8.74009 3.56506 11.7489 3.06933 15.3399C2.5736 18.9323 3.64337 23.5161 5.70594 27.0687C7.76852 30.624 9.86961 31.9601 11.3609 31.9986C12.8522 32.0356 14.3408 30.9302 16.1356 30.661C17.9319 30.3946 19.0373 31.312 20.7991 31.8077C22.5541 32.3021 23.1693 31.8434 25.1907 30.1241C27.2176 28.4048 29.0522 23.4736 29.0522 23.4736C29.0522 23.4736 25.6494 22.3694 24.7691 17.9367Z" fill="white"/>
<path d="M20.872 5.06308C22.822 3.07607 22.1615 0 22.1615 0C22.1615 0 19.4233 0.480646 17.5886 2.38941C15.7553 4.29958 16.0588 7.31658 16.0588 7.31658C16.0588 7.31658 18.922 7.04881 20.872 5.06308Z" fill="white"/>
</g>
<defs>
<clipPath id="clip0_3556_1254">
<rect width="32" height="32" fill="white"/>
</clipPath>
</defs>
</svg>
